<?xml version="1.0" encoding="UTF-8" standalone="no"?>
<!DOCTYPE svg PUBLIC "-//W3C//DTD SVG 1.1//EN"
 "http://www.w3.org/Graphics/SVG/1.1/DTD/svg11.dtd">
<!-- Generated by graphviz version 2.43.0 (0)
 -->
<!-- Title: G Pages: 1 -->
<svg width="992pt" height="287pt"
 viewBox="0.00 0.00 992.00 287.00" xmlns="http://www.w3.org/2000/svg" xmlns:xlink="http://www.w3.org/1999/xlink">
<g id="graph0" class="graph" transform="scale(1 1) rotate(0) translate(4 283)">
<title>G</title>
<polygon fill="white" stroke="transparent" points="-4,4 -4,-283 988,-283 988,4 -4,4"/>
<!-- data.aws_ami.os -->
<g id="node1" class="node">
<title>data.aws_ami.os</title>
<polygon fill="none" stroke="black" points="500,-279 377,-279 377,-243 500,-243 500,-279"/>
<text text-anchor="middle" x="438.5" y="-257.3" font-family="sans-serif" font-size="14.00">data.aws_ami.os</text>
</g>
<!-- data.terraform_remote_state.iam -->
<g id="node2" class="node">
<title>data.terraform_remote_state.iam</title>
<polygon fill="none" stroke="black" points="555,-225 322,-225 322,-189 555,-189 555,-225"/>
<text text-anchor="middle" x="438.5" y="-203.3" font-family="sans-serif" font-size="14.00">data.terraform_remote_state.iam</text>
</g>
<!-- data.terraform_remote_state.networking -->
<g id="node3" class="node">
<title>data.terraform_remote_state.networking</title>
<polygon fill="none" stroke="black" points="286,-144 0,-144 0,-108 286,-108 286,-144"/>
<text text-anchor="middle" x="143" y="-122.3" font-family="sans-serif" font-size="14.00">data.terraform_remote_state.networking</text>
</g>
<!-- aws_instance.lab_instance -->
<g id="node4" class="node">
<title>aws_instance.lab_instance</title>
<polygon fill="none" stroke="black" points="882.5,-252 692.5,-252 692.5,-216 882.5,-216 882.5,-252"/>
<text text-anchor="middle" x="787.5" y="-230.3" font-family="sans-serif" font-size="14.00">aws_instance.lab_instance</text>
</g>
<!-- aws_instance.lab_instance&#45;&gt;data.aws_ami.os -->
<g id="edge1" class="edge">
<title>aws_instance.lab_instance&#45;&gt;data.aws_ami.os</title>
<path fill="none" stroke="black" d="M692.14,-241.34C634.85,-245.8 562.91,-251.4 510.46,-255.48"/>
<polygon fill="black" stroke="black" points="509.94,-252.01 500.24,-256.27 510.48,-258.99 509.94,-252.01"/>
</g>
<!-- aws_instance.lab_instance&#45;&gt;data.terraform_remote_state.iam -->
<g id="edge2" class="edge">
<title>aws_instance.lab_instance&#45;&gt;data.terraform_remote_state.iam</title>
<path fill="none" stroke="black" d="M692.14,-226.66C653.03,-223.61 607.09,-220.04 565.19,-216.78"/>
<polygon fill="black" stroke="black" points="565.44,-213.29 555.19,-216 564.89,-220.27 565.44,-213.29"/>
</g>
<!-- aws_security_group.lab_sg -->
<g id="node5" class="node">
<title>aws_security_group.lab_sg</title>
<polygon fill="none" stroke="black" points="534,-144 343,-144 343,-108 534,-108 534,-144"/>
<text text-anchor="middle" x="438.5" y="-122.3" font-family="sans-serif" font-size="14.00">aws_security_group.lab_sg</text>
</g>
<!-- aws_instance.lab_instance&#45;&gt;aws_security_group.lab_sg -->
<g id="edge3" class="edge">
<title>aws_instance.lab_instance&#45;&gt;aws_security_group.lab_sg</title>
<path fill="none" stroke="black" d="M692.49,-230.67C659.45,-227.01 622.69,-220.04 591,-207 572.5,-199.39 572.15,-190.29 555,-180 535.42,-168.25 512.86,-157.2 492.91,-148.2"/>
<polygon fill="black" stroke="black" points="494.21,-144.94 483.65,-144.08 491.36,-151.34 494.21,-144.94"/>
</g>
<!-- aws_security_group.lab_sg&#45;&gt;data.terraform_remote_state.networking -->
<g id="edge4" class="edge">
<title>aws_security_group.lab_sg&#45;&gt;data.terraform_remote_state.networking</title>
<path fill="none" stroke="black" d="M342.61,-126C327.78,-126 312.13,-126 296.39,-126"/>
<polygon fill="black" stroke="black" points="296.05,-122.5 286.04,-126 296.04,-129.5 296.05,-122.5"/>
</g>
<!-- aws_vpc_security_group_egress_rule.allow_all_traffic_ipv4 -->
<g id="node6" class="node">
<title>aws_vpc_security_group_egress_rule.allow_all_traffic_ipv4</title>
<polygon fill="none" stroke="black" points="984,-198 591,-198 591,-162 984,-162 984,-198"/>
<text text-anchor="middle" x="787.5" y="-176.3" font-family="sans-serif" font-size="14.00">aws_vpc_security_group_egress_rule.allow_all_traffic_ipv4</text>
</g>
<!-- aws_vpc_security_group_egress_rule.allow_all_traffic_ipv4&#45;&gt;aws_security_group.lab_sg -->
<g id="edge5" class="edge">
<title>aws_vpc_security_group_egress_rule.allow_all_traffic_ipv4&#45;&gt;aws_security_group.lab_sg</title>
<path fill="none" stroke="black" d="M650.99,-161.99C630.86,-159.11 610.37,-156.06 591,-153 575.96,-150.62 560.1,-147.96 544.54,-145.27"/>
<polygon fill="black" stroke="black" points="544.82,-141.76 534.36,-143.49 543.61,-148.66 544.82,-141.76"/>
</g>
<!-- aws_vpc_security_group_egress_rule.allow_all_traffic_ipv6 -->
<g id="node7" class="node">
<title>aws_vpc_security_group_egress_rule.allow_all_traffic_ipv6</title>
<polygon fill="none" stroke="black" points="984,-144 591,-144 591,-108 984,-108 984,-144"/>
<text text-anchor="middle" x="787.5" y="-122.3" font-family="sans-serif" font-size="14.00">aws_vpc_security_group_egress_rule.allow_all_traffic_ipv6</text>
</g>
<!-- aws_vpc_security_group_egress_rule.allow_all_traffic_ipv6&#45;&gt;aws_security_group.lab_sg -->
<g id="edge6" class="edge">
<title>aws_vpc_security_group_egress_rule.allow_all_traffic_ipv6&#45;&gt;aws_security_group.lab_sg</title>
<path fill="none" stroke="black" d="M590.94,-126C574.93,-126 559.18,-126 544.24,-126"/>
<polygon fill="black" stroke="black" points="544.03,-122.5 534.03,-126 544.03,-129.5 544.03,-122.5"/>
</g>
<!-- aws_vpc_security_group_ingress_rule.allow_ssh_ipv4 -->
<g id="node8" class="node">
<title>aws_vpc_security_group_ingress_rule.allow_ssh_ipv4</title>
<polygon fill="none" stroke="black" points="968,-90 607,-90 607,-54 968,-54 968,-90"/>
<text text-anchor="middle" x="787.5" y="-68.3" font-family="sans-serif" font-size="14.00">aws_vpc_security_group_ingress_rule.allow_ssh_ipv4</text>
</g>
<!-- aws_vpc_security_group_ingress_rule.allow_ssh_ipv4&#45;&gt;aws_security_group.lab_sg -->
<g id="edge7" class="edge">
<title>aws_vpc_security_group_ingress_rule.allow_ssh_ipv4&#45;&gt;aws_security_group.lab_sg</title>
<path fill="none" stroke="black" d="M650.99,-90.01C630.86,-92.89 610.37,-95.94 591,-99 575.96,-101.38 560.1,-104.04 544.54,-106.73"/>
<polygon fill="black" stroke="black" points="543.61,-103.34 534.36,-108.51 544.82,-110.24 543.61,-103.34"/>
</g>
<!-- aws_vpc_security_group_ingress_rule.allow_ssh_ipv6 -->
<g id="node9" class="node">
<title>aws_vpc_security_group_ingress_rule.allow_ssh_ipv6</title>
<polygon fill="none" stroke="black" points="968,-36 607,-36 607,0 968,0 968,-36"/>
<text text-anchor="middle" x="787.5" y="-14.3" font-family="sans-serif" font-size="14.00">aws_vpc_security_group_ingress_rule.allow_ssh_ipv6</text>
</g>
<!-- aws_vpc_security_group_ingress_rule.allow_ssh_ipv6&#45;&gt;aws_security_group.lab_sg -->
<g id="edge8" class="edge">
<title>aws_vpc_security_group_ingress_rule.allow_ssh_ipv6&#45;&gt;aws_security_group.lab_sg</title>
<path fill="none" stroke="black" d="M623.35,-36.06C612.3,-38.65 601.43,-41.61 591,-45 548.84,-58.7 504.57,-83.79 474.85,-102.43"/>
<polygon fill="black" stroke="black" points="472.67,-99.67 466.11,-107.99 476.43,-105.58 472.67,-99.67"/>
</g>
</g>
</svg>
