<?xml version="1.0" encoding="UTF-8" standalone="no"?>
<!DOCTYPE svg PUBLIC "-//W3C//DTD SVG 1.1//EN"
 "http://www.w3.org/Graphics/SVG/1.1/DTD/svg11.dtd">
<!-- Generated by graphviz version 2.43.0 (0)
 -->
<!-- Title: G Pages: 1 -->
<svg width="1345pt" height="692pt"
 viewBox="0.00 0.00 1345.00 692.00" xmlns="http://www.w3.org/2000/svg" xmlns:xlink="http://www.w3.org/1999/xlink">
<g id="graph0" class="graph" transform="scale(1 1) rotate(0) translate(4 688)">
<title>G</title>
<polygon fill="white" stroke="transparent" points="-4,4 -4,-688 1341,-688 1341,4 -4,4"/>
<!-- data.aws_iam_policy_document.cost_explorer_assume_role -->
<g id="node1" class="node">
<title>data.aws_iam_policy_document.cost_explorer_assume_role</title>
<polygon fill="none" stroke="black" points="589.5,-36 187.5,-36 187.5,0 589.5,0 589.5,-36"/>
<text text-anchor="middle" x="388.5" y="-14.3" font-family="sans-serif" font-size="14.00">data.aws_iam_policy_document.cost_explorer_assume_role</text>
</g>
<!-- aws_iam_user.users -->
<g id="node17" class="node">
<title>aws_iam_user.users</title>
<polygon fill="none" stroke="black" points="146,-144 0,-144 0,-108 146,-108 146,-144"/>
<text text-anchor="middle" x="73" y="-122.3" font-family="sans-serif" font-size="14.00">aws_iam_user.users</text>
</g>
<!-- data.aws_iam_policy_document.cost_explorer_assume_role&#45;&gt;aws_iam_user.users -->
<g id="edge1" class="edge">
<title>data.aws_iam_policy_document.cost_explorer_assume_role&#45;&gt;aws_iam_user.users</title>
<path fill="none" stroke="black" d="M207.58,-36.06C198.82,-38.67 190.25,-41.64 182,-45 150.44,-57.87 119.88,-82.25 99.38,-100.92"/>
<polygon fill="black" stroke="black" points="96.97,-98.38 92.03,-107.76 101.73,-103.51 96.97,-98.38"/>
</g>
<!-- aws_iam_access_key.user_keys -->
<g id="node2" class="node">
<title>aws_iam_access_key.user_keys</title>
<polygon fill="none" stroke="black" points="497.5,-252 279.5,-252 279.5,-216 497.5,-216 497.5,-252"/>
<text text-anchor="middle" x="388.5" y="-230.3" font-family="sans-serif" font-size="14.00">aws_iam_access_key.user_keys</text>
</g>
<!-- aws_iam_access_key.user_keys&#45;&gt;aws_iam_user.users -->
<g id="edge2" class="edge">
<title>aws_iam_access_key.user_keys&#45;&gt;aws_iam_user.users</title>
<path fill="none" stroke="black" d="M279.49,-230.25C247.25,-226.38 212.41,-219.39 182,-207 150.44,-194.13 119.88,-169.75 99.38,-151.08"/>
<polygon fill="black" stroke="black" points="101.73,-148.49 92.03,-144.24 96.97,-153.62 101.73,-148.49"/>
</g>
<!-- aws_iam_group.team_groups -->
<g id="node3" class="node">
<title>aws_iam_group.team_groups</title>
<polygon fill="none" stroke="black" points="856.5,-306 650.5,-306 650.5,-270 856.5,-270 856.5,-306"/>
<text text-anchor="middle" x="753.5" y="-284.3" font-family="sans-serif" font-size="14.00">aws_iam_group.team_groups</text>
</g>
<!-- aws_iam_group_policy_attachment.group_policies -->
<g id="node4" class="node">
<title>aws_iam_group_policy_attachment.group_policies</title>
<polygon fill="none" stroke="black" points="1295.5,-306 953.5,-306 953.5,-270 1295.5,-270 1295.5,-306"/>
<text text-anchor="middle" x="1124.5" y="-284.3" font-family="sans-serif" font-size="14.00">aws_iam_group_policy_attachment.group_policies</text>
</g>
<!-- aws_iam_group_policy_attachment.group_policies&#45;&gt;aws_iam_group.team_groups -->
<g id="edge3" class="edge">
<title>aws_iam_group_policy_attachment.group_policies&#45;&gt;aws_iam_group.team_groups</title>
<path fill="none" stroke="black" d="M953.31,-288C923.98,-288 894.17,-288 866.86,-288"/>
<polygon fill="black" stroke="black" points="866.52,-284.5 856.52,-288 866.52,-291.5 866.52,-284.5"/>
</g>
<!-- aws_iam_instance_profile.ec2_projects -->
<g id="node5" class="node">
<title>aws_iam_instance_profile.ec2_projects</title>
<polygon fill="none" stroke="black" points="1258.5,-468 990.5,-468 990.5,-432 1258.5,-432 1258.5,-468"/>
<text text-anchor="middle" x="1124.5" y="-446.3" font-family="sans-serif" font-size="14.00">aws_iam_instance_profile.ec2_projects</text>
</g>
<!-- aws_iam_role.ec2_projects -->
<g id="node8" class="node">
<title>aws_iam_role.ec2_projects</title>
<polygon fill="none" stroke="black" points="848,-414 659,-414 659,-378 848,-378 848,-414"/>
<text text-anchor="middle" x="753.5" y="-392.3" font-family="sans-serif" font-size="14.00">aws_iam_role.ec2_projects</text>
</g>
<!-- aws_iam_instance_profile.ec2_projects&#45;&gt;aws_iam_role.ec2_projects -->
<g id="edge4" class="edge">
<title>aws_iam_instance_profile.ec2_projects&#45;&gt;aws_iam_role.ec2_projects</title>
<path fill="none" stroke="black" d="M990.25,-433.87C964.27,-430.48 937.26,-426.78 912,-423 894.52,-420.39 875.99,-417.4 858.01,-414.39"/>
<polygon fill="black" stroke="black" points="858.53,-410.93 848.09,-412.72 857.37,-417.84 858.53,-410.93"/>
</g>
<!-- aws_iam_openid_connect_provider.github -->
<g id="node6" class="node">
<title>aws_iam_openid_connect_provider.github</title>
<polygon fill="none" stroke="black" points="533,-603 244,-603 244,-567 533,-567 533,-603"/>
<text text-anchor="middle" x="388.5" y="-581.3" font-family="sans-serif" font-size="14.00">aws_iam_openid_connect_provider.github</text>
</g>
<!-- aws_iam_role.cost_explorer_reader -->
<g id="node7" class="node">
<title>aws_iam_role.cost_explorer_reader</title>
<polygon fill="none" stroke="black" points="876,-36 631,-36 631,0 876,0 876,-36"/>
<text text-anchor="middle" x="753.5" y="-14.3" font-family="sans-serif" font-size="14.00">aws_iam_role.cost_explorer_reader</text>
</g>
<!-- aws_iam_role.cost_explorer_reader&#45;&gt;data.aws_iam_policy_document.cost_explorer_assume_role -->
<g id="edge5" class="edge">
<title>aws_iam_role.cost_explorer_reader&#45;&gt;data.aws_iam_policy_document.cost_explorer_assume_role</title>
<path fill="none" stroke="black" d="M630.87,-18C620.72,-18 610.29,-18 599.73,-18"/>
<polygon fill="black" stroke="black" points="599.56,-14.5 589.56,-18 599.56,-21.5 599.56,-14.5"/>
</g>
<!-- aws_iam_role.github_actions -->
<g id="node9" class="node">
<title>aws_iam_role.github_actions</title>
<polygon fill="none" stroke="black" points="855.5,-603 651.5,-603 651.5,-567 855.5,-567 855.5,-603"/>
<text text-anchor="middle" x="753.5" y="-581.3" font-family="sans-serif" font-size="14.00">aws_iam_role.github_actions</text>
</g>
<!-- aws_iam_role.github_actions&#45;&gt;aws_iam_openid_connect_provider.github -->
<g id="edge6" class="edge">
<title>aws_iam_role.github_actions&#45;&gt;aws_iam_openid_connect_provider.github</title>
<path fill="none" stroke="black" d="M651.38,-585C617.92,-585 579.89,-585 543.39,-585"/>
<polygon fill="black" stroke="black" points="543.14,-581.5 533.14,-585 543.14,-588.5 543.14,-581.5"/>
</g>
<!-- aws_iam_role_policy.ec2_dynamodb_access -->
<g id="node10" class="node">
<title>aws_iam_role_policy.ec2_dynamodb_access</title>
<polygon fill="none" stroke="black" points="1274,-414 975,-414 975,-378 1274,-378 1274,-414"/>
<text text-anchor="middle" x="1124.5" y="-392.3" font-family="sans-serif" font-size="14.00">aws_iam_role_policy.ec2_dynamodb_access</text>
</g>
<!-- aws_iam_role_policy.ec2_dynamodb_access&#45;&gt;aws_iam_role.ec2_projects -->
<g id="edge7" class="edge">
<title>aws_iam_role_policy.ec2_dynamodb_access&#45;&gt;aws_iam_role.ec2_projects</title>
<path fill="none" stroke="black" d="M974.74,-396C935.68,-396 894.4,-396 858.27,-396"/>
<polygon fill="black" stroke="black" points="858.22,-392.5 848.22,-396 858.22,-399.5 858.22,-392.5"/>
</g>
<!-- aws_iam_role_policy.ec2_s3_access -->
<g id="node11" class="node">
<title>aws_iam_role_policy.ec2_s3_access</title>
<polygon fill="none" stroke="black" points="1246.5,-360 1002.5,-360 1002.5,-324 1246.5,-324 1246.5,-360"/>
<text text-anchor="middle" x="1124.5" y="-338.3" font-family="sans-serif" font-size="14.00">aws_iam_role_policy.ec2_s3_access</text>
</g>
<!-- aws_iam_role_policy.ec2_s3_access&#45;&gt;aws_iam_role.ec2_projects -->
<g id="edge8" class="edge">
<title>aws_iam_role_policy.ec2_s3_access&#45;&gt;aws_iam_role.ec2_projects</title>
<path fill="none" stroke="black" d="M1002.31,-356.57C972.73,-360.37 941.2,-364.64 912,-369 894.52,-371.61 875.99,-374.6 858.01,-377.61"/>
<polygon fill="black" stroke="black" points="857.37,-374.16 848.09,-379.28 858.53,-381.07 857.37,-374.16"/>
</g>
<!-- aws_iam_role_policy.github_actions_iam_limited -->
<g id="node12" class="node">
<title>aws_iam_role_policy.github_actions_iam_limited</title>
<polygon fill="none" stroke="black" points="1289,-684 960,-684 960,-648 1289,-648 1289,-684"/>
<text text-anchor="middle" x="1124.5" y="-662.3" font-family="sans-serif" font-size="14.00">aws_iam_role_policy.github_actions_iam_limited</text>
</g>
<!-- aws_iam_role_policy.github_actions_iam_limited&#45;&gt;aws_iam_role.github_actions -->
<g id="edge9" class="edge">
<title>aws_iam_role_policy.github_actions_iam_limited&#45;&gt;aws_iam_role.github_actions</title>
<path fill="none" stroke="black" d="M959.81,-648.47C943.58,-645.73 927.41,-642.59 912,-639 876.94,-630.84 838.72,-617.84 808.72,-606.64"/>
<polygon fill="black" stroke="black" points="809.87,-603.34 799.28,-603.08 807.39,-609.89 809.87,-603.34"/>
</g>
<!-- aws_iam_role_policy.github_actions_tfstate -->
<g id="node13" class="node">
<title>aws_iam_role_policy.github_actions_tfstate</title>
<polygon fill="none" stroke="black" points="1272.5,-630 976.5,-630 976.5,-594 1272.5,-594 1272.5,-630"/>
<text text-anchor="middle" x="1124.5" y="-608.3" font-family="sans-serif" font-size="14.00">aws_iam_role_policy.github_actions_tfstate</text>
</g>
<!-- aws_iam_role_policy.github_actions_tfstate&#45;&gt;aws_iam_role.github_actions -->
<g id="edge10" class="edge">
<title>aws_iam_role_policy.github_actions_tfstate&#45;&gt;aws_iam_role.github_actions</title>
<path fill="none" stroke="black" d="M976.34,-601.23C939.5,-598.54 900.59,-595.69 865.82,-593.15"/>
<polygon fill="black" stroke="black" points="865.88,-589.64 855.65,-592.4 865.36,-596.62 865.88,-589.64"/>
</g>
<!-- aws_iam_role_policy_attachment.cost_explorer_access -->
<g id="node14" class="node">
<title>aws_iam_role_policy_attachment.cost_explorer_access</title>
<polygon fill="none" stroke="black" points="1310,-36 939,-36 939,0 1310,0 1310,-36"/>
<text text-anchor="middle" x="1124.5" y="-14.3" font-family="sans-serif" font-size="14.00">aws_iam_role_policy_attachment.cost_explorer_access</text>
</g>
<!-- aws_iam_role_policy_attachment.cost_explorer_access&#45;&gt;aws_iam_role.cost_explorer_reader -->
<g id="edge11" class="edge">
<title>aws_iam_role_policy_attachment.cost_explorer_access&#45;&gt;aws_iam_role.cost_explorer_reader</title>
<path fill="none" stroke="black" d="M938.73,-18C921.14,-18 903.55,-18 886.61,-18"/>
<polygon fill="black" stroke="black" points="886.15,-14.5 876.15,-18 886.15,-21.5 886.15,-14.5"/>
</g>
<!-- aws_iam_role_policy_attachment.github_actions_iam_readonly -->
<g id="node15" class="node">
<title>aws_iam_role_policy_attachment.github_actions_iam_readonly</title>
<polygon fill="none" stroke="black" points="1337,-576 912,-576 912,-540 1337,-540 1337,-576"/>
<text text-anchor="middle" x="1124.5" y="-554.3" font-family="sans-serif" font-size="14.00">aws_iam_role_policy_attachment.github_actions_iam_readonly</text>
</g>
<!-- aws_iam_role_policy_attachment.github_actions_iam_readonly&#45;&gt;aws_iam_role.github_actions -->
<g id="edge12" class="edge">
<title>aws_iam_role_policy_attachment.github_actions_iam_readonly&#45;&gt;aws_iam_role.github_actions</title>
<path fill="none" stroke="black" d="M911.79,-573.49C895.98,-574.65 880.44,-575.78 865.65,-576.87"/>
<polygon fill="black" stroke="black" points="865.26,-573.39 855.54,-577.61 865.77,-580.37 865.26,-573.39"/>
</g>
<!-- aws_iam_role_policy_attachment.github_actions_power_user -->
<g id="node16" class="node">
<title>aws_iam_role_policy_attachment.github_actions_power_user</title>
<polygon fill="none" stroke="black" points="1332,-522 917,-522 917,-486 1332,-486 1332,-522"/>
<text text-anchor="middle" x="1124.5" y="-500.3" font-family="sans-serif" font-size="14.00">aws_iam_role_policy_attachment.github_actions_power_user</text>
</g>
<!-- aws_iam_role_policy_attachment.github_actions_power_user&#45;&gt;aws_iam_role.github_actions -->
<g id="edge13" class="edge">
<title>aws_iam_role_policy_attachment.github_actions_power_user&#45;&gt;aws_iam_role.github_actions</title>
<path fill="none" stroke="black" d="M956.96,-522.01C941.69,-524.64 926.51,-527.62 912,-531 876.94,-539.16 838.72,-552.16 808.72,-563.36"/>
<polygon fill="black" stroke="black" points="807.39,-560.11 799.28,-566.92 809.87,-566.66 807.39,-560.11"/>
</g>
<!-- aws_iam_user_group_membership.user_groups -->
<g id="node18" class="node">
<title>aws_iam_user_group_membership.user_groups</title>
<polygon fill="none" stroke="black" points="553,-198 224,-198 224,-162 553,-162 553,-198"/>
<text text-anchor="middle" x="388.5" y="-176.3" font-family="sans-serif" font-size="14.00">aws_iam_user_group_membership.user_groups</text>
</g>
<!-- aws_iam_user_group_membership.user_groups&#45;&gt;aws_iam_user.users -->
<g id="edge14" class="edge">
<title>aws_iam_user_group_membership.user_groups&#45;&gt;aws_iam_user.users</title>
<path fill="none" stroke="black" d="M235.13,-161.96C217.17,-159.25 199.15,-156.26 182,-153 171.93,-151.09 161.39,-148.81 151.02,-146.39"/>
<polygon fill="black" stroke="black" points="151.68,-142.95 141.14,-144.05 150.06,-149.76 151.68,-142.95"/>
</g>
<!-- aws_iam_user_policy_attachment.console_change_password -->
<g id="node19" class="node">
<title>aws_iam_user_policy_attachment.console_change_password</title>
<polygon fill="none" stroke="black" points="595,-144 182,-144 182,-108 595,-108 595,-144"/>
<text text-anchor="middle" x="388.5" y="-122.3" font-family="sans-serif" font-size="14.00">aws_iam_user_policy_attachment.console_change_password</text>
</g>
<!-- aws_iam_user_policy_attachment.console_change_password&#45;&gt;aws_iam_user.users -->
<g id="edge15" class="edge">
<title>aws_iam_user_policy_attachment.console_change_password&#45;&gt;aws_iam_user.users</title>
<path fill="none" stroke="black" d="M181.89,-126C173.12,-126 164.59,-126 156.4,-126"/>
<polygon fill="black" stroke="black" points="156.23,-122.5 146.23,-126 156.23,-129.5 156.23,-122.5"/>
</g>
<!-- local_file.console_users_info -->
<g id="node20" class="node">
<title>local_file.console_users_info</title>
<polygon fill="none" stroke="black" points="489.5,-90 287.5,-90 287.5,-54 489.5,-54 489.5,-90"/>
<text text-anchor="middle" x="388.5" y="-68.3" font-family="sans-serif" font-size="14.00">local_file.console_users_info</text>
</g>
<!-- local_file.console_users_info&#45;&gt;aws_iam_user.users -->
<g id="edge16" class="edge">
<title>local_file.console_users_info&#45;&gt;aws_iam_user.users</title>
<path fill="none" stroke="black" d="M287.31,-82.83C253.71,-87.08 216.11,-92.52 182,-99 171.93,-100.91 161.39,-103.19 151.02,-105.61"/>
<polygon fill="black" stroke="black" points="150.06,-102.24 141.14,-107.95 151.68,-109.05 150.06,-102.24"/>
</g>
<!-- local_file.service_account_keys -->
<g id="node21" class="node">
<title>local_file.service_account_keys</title>
<polygon fill="none" stroke="black" points="862,-252 645,-252 645,-216 862,-216 862,-252"/>
<text text-anchor="middle" x="753.5" y="-230.3" font-family="sans-serif" font-size="14.00">local_file.service_account_keys</text>
</g>
<!-- local_file.service_account_keys&#45;&gt;aws_iam_access_key.user_keys -->
<g id="edge17" class="edge">
<title>local_file.service_account_keys&#45;&gt;aws_iam_access_key.user_keys</title>
<path fill="none" stroke="black" d="M644.57,-234C601.53,-234 551.84,-234 507.82,-234"/>
<polygon fill="black" stroke="black" points="507.64,-230.5 497.64,-234 507.64,-237.5 507.64,-230.5"/>
</g>
</g>
</svg>
