<?xml version="1.0" encoding="UTF-8" standalone="no"?>
<!DOCTYPE svg PUBLIC "-//W3C//DTD SVG 1.1//EN"
 "http://www.w3.org/Graphics/SVG/1.1/DTD/svg11.dtd">
<!-- Generated by graphviz version 2.43.0 (0)
 -->
<!-- Title: G Pages: 1 -->
<svg width="1458pt" height="368pt"
 viewBox="0.00 0.00 1458.00 368.00" xmlns="http://www.w3.org/2000/svg" xmlns:xlink="http://www.w3.org/1999/xlink">
<g id="graph0" class="graph" transform="scale(1 1) rotate(0) translate(4 364)">
<title>G</title>
<polygon fill="white" stroke="transparent" points="-4,4 -4,-364 1454,-364 1454,4 -4,4"/>
<!-- data.aws_availability_zones.available -->
<g id="node1" class="node">
<title>data.aws_availability_zones.available</title>
<polygon fill="none" stroke="black" points="255,-333 0,-333 0,-297 255,-297 255,-333"/>
<text text-anchor="middle" x="127.5" y="-311.3" font-family="sans-serif" font-size="14.00">data.aws_availability_zones.available</text>
</g>
<!-- aws_default_security_group.default -->
<g id="node2" class="node">
<title>aws_default_security_group.default</title>
<polygon fill="none" stroke="black" points="540,-198 291,-198 291,-162 540,-162 540,-198"/>
<text text-anchor="middle" x="415.5" y="-176.3" font-family="sans-serif" font-size="14.00">aws_default_security_group.default</text>
</g>
<!-- aws_vpc.main -->
<g id="node10" class="node">
<title>aws_vpc.main</title>
<polygon fill="none" stroke="black" points="181,-198 74,-198 74,-162 181,-162 181,-198"/>
<text text-anchor="middle" x="127.5" y="-176.3" font-family="sans-serif" font-size="14.00">aws_vpc.main</text>
</g>
<!-- aws_default_security_group.default&#45;&gt;aws_vpc.main -->
<g id="edge1" class="edge">
<title>aws_default_security_group.default&#45;&gt;aws_vpc.main</title>
<path fill="none" stroke="black" d="M290.72,-180C256.42,-180 220.61,-180 191.4,-180"/>
<polygon fill="black" stroke="black" points="191.35,-176.5 181.35,-180 191.35,-183.5 191.35,-176.5"/>
</g>
<!-- aws_internet_gateway.main -->
<g id="node3" class="node">
<title>aws_internet_gateway.main</title>
<polygon fill="none" stroke="black" points="515.5,-90 315.5,-90 315.5,-54 515.5,-54 515.5,-90"/>
<text text-anchor="middle" x="415.5" y="-68.3" font-family="sans-serif" font-size="14.00">aws_internet_gateway.main</text>
</g>
<!-- aws_internet_gateway.main&#45;&gt;aws_vpc.main -->
<g id="edge2" class="edge">
<title>aws_internet_gateway.main&#45;&gt;aws_vpc.main</title>
<path fill="none" stroke="black" d="M320.42,-90.01C310.39,-92.69 300.42,-95.68 291,-99 247.3,-114.4 200.21,-138.82 168.03,-156.82"/>
<polygon fill="black" stroke="black" points="165.94,-153.99 158.95,-161.95 169.38,-160.08 165.94,-153.99"/>
</g>
<!-- aws_route_table.private -->
<g id="node4" class="node">
<title>aws_route_table.private</title>
<polygon fill="none" stroke="black" points="502,-144 329,-144 329,-108 502,-108 502,-144"/>
<text text-anchor="middle" x="415.5" y="-122.3" font-family="sans-serif" font-size="14.00">aws_route_table.private</text>
</g>
<!-- aws_route_table.private&#45;&gt;aws_vpc.main -->
<g id="edge3" class="edge">
<title>aws_route_table.private&#45;&gt;aws_vpc.main</title>
<path fill="none" stroke="black" d="M328.69,-142.2C284.4,-150.56 231.34,-160.58 190.98,-168.2"/>
<polygon fill="black" stroke="black" points="190.19,-164.79 181.01,-170.09 191.48,-171.67 190.19,-164.79"/>
</g>
<!-- aws_route_table.public -->
<g id="node5" class="node">
<title>aws_route_table.public</title>
<polygon fill="none" stroke="black" points="870.5,-117 703.5,-117 703.5,-81 870.5,-81 870.5,-117"/>
<text text-anchor="middle" x="787" y="-95.3" font-family="sans-serif" font-size="14.00">aws_route_table.public</text>
</g>
<!-- aws_route_table.public&#45;&gt;aws_internet_gateway.main -->
<g id="edge4" class="edge">
<title>aws_route_table.public&#45;&gt;aws_internet_gateway.main</title>
<path fill="none" stroke="black" d="M703.08,-92.94C650.69,-89.11 582.41,-84.12 525.65,-79.98"/>
<polygon fill="black" stroke="black" points="525.78,-76.48 515.55,-79.24 525.27,-83.46 525.78,-76.48"/>
</g>
<!-- aws_route_table_association.private -->
<g id="node6" class="node">
<title>aws_route_table_association.private</title>
<polygon fill="none" stroke="black" points="913,-225 661,-225 661,-189 913,-189 913,-225"/>
<text text-anchor="middle" x="787" y="-203.3" font-family="sans-serif" font-size="14.00">aws_route_table_association.private</text>
</g>
<!-- aws_route_table_association.private&#45;&gt;aws_route_table.private -->
<g id="edge5" class="edge">
<title>aws_route_table_association.private&#45;&gt;aws_route_table.private</title>
<path fill="none" stroke="black" d="M660.86,-201.6C632.25,-197.46 602.48,-190.75 576,-180 557.47,-172.48 558.18,-161.33 540,-153 531.09,-148.92 521.54,-145.45 511.84,-142.49"/>
<polygon fill="black" stroke="black" points="512.68,-139.09 502.1,-139.69 510.75,-145.81 512.68,-139.09"/>
</g>
<!-- aws_subnet.private -->
<g id="node8" class="node">
<title>aws_subnet.private</title>
<polygon fill="none" stroke="black" points="487.5,-306 343.5,-306 343.5,-270 487.5,-270 487.5,-306"/>
<text text-anchor="middle" x="415.5" y="-284.3" font-family="sans-serif" font-size="14.00">aws_subnet.private</text>
</g>
<!-- aws_route_table_association.private&#45;&gt;aws_subnet.private -->
<g id="edge6" class="edge">
<title>aws_route_table_association.private&#45;&gt;aws_subnet.private</title>
<path fill="none" stroke="black" d="M704,-225.02C656.17,-235.52 594.67,-249.02 540,-261 526.37,-263.99 511.9,-267.15 497.83,-270.23"/>
<polygon fill="black" stroke="black" points="496.71,-266.89 487.69,-272.45 498.2,-273.73 496.71,-266.89"/>
</g>
<!-- aws_route_table_association.public -->
<g id="node7" class="node">
<title>aws_route_table_association.public</title>
<polygon fill="none" stroke="black" points="1365,-291 1119,-291 1119,-255 1365,-255 1365,-291"/>
<text text-anchor="middle" x="1242" y="-269.3" font-family="sans-serif" font-size="14.00">aws_route_table_association.public</text>
</g>
<!-- aws_route_table_association.public&#45;&gt;aws_route_table.public -->
<g id="edge7" class="edge">
<title>aws_route_table_association.public&#45;&gt;aws_route_table.public</title>
<path fill="none" stroke="black" d="M1135.85,-254.95C1100.23,-244.59 1062.35,-228.36 1034,-203 1005.84,-177.81 1028.51,-148.28 998,-126 964.68,-101.67 920.22,-93.49 880.78,-91.96"/>
<polygon fill="black" stroke="black" points="880.69,-88.46 870.61,-91.71 880.52,-95.46 880.69,-88.46"/>
</g>
<!-- aws_subnet.public -->
<g id="node9" class="node">
<title>aws_subnet.public</title>
<polygon fill="none" stroke="black" points="484.5,-360 346.5,-360 346.5,-324 484.5,-324 484.5,-360"/>
<text text-anchor="middle" x="415.5" y="-338.3" font-family="sans-serif" font-size="14.00">aws_subnet.public</text>
</g>
<!-- aws_route_table_association.public&#45;&gt;aws_subnet.public -->
<g id="edge8" class="edge">
<title>aws_route_table_association.public&#45;&gt;aws_subnet.public</title>
<path fill="none" stroke="black" d="M1118.9,-283.22C947.08,-297.6 638.86,-323.39 494.76,-335.45"/>
<polygon fill="black" stroke="black" points="494.35,-331.97 484.67,-336.29 494.93,-338.95 494.35,-331.97"/>
</g>
<!-- aws_subnet.private&#45;&gt;data.aws_availability_zones.available -->
<g id="edge9" class="edge">
<title>aws_subnet.private&#45;&gt;data.aws_availability_zones.available</title>
<path fill="none" stroke="black" d="M343.44,-294.71C319.64,-296.96 292.25,-299.54 265.17,-302.1"/>
<polygon fill="black" stroke="black" points="264.84,-298.61 255.21,-303.04 265.49,-305.58 264.84,-298.61"/>
</g>
<!-- aws_subnet.private&#45;&gt;aws_vpc.main -->
<g id="edge10" class="edge">
<title>aws_subnet.private&#45;&gt;aws_vpc.main</title>
<path fill="none" stroke="black" d="M343.45,-275.61C326.06,-271.72 307.66,-266.87 291,-261 247.3,-245.6 200.21,-221.18 168.03,-203.18"/>
<polygon fill="black" stroke="black" points="169.38,-199.92 158.95,-198.05 165.94,-206.01 169.38,-199.92"/>
</g>
<!-- aws_subnet.public&#45;&gt;data.aws_availability_zones.available -->
<g id="edge11" class="edge">
<title>aws_subnet.public&#45;&gt;data.aws_availability_zones.available</title>
<path fill="none" stroke="black" d="M346.36,-335.57C322.01,-333.27 293.62,-330.59 265.54,-327.94"/>
<polygon fill="black" stroke="black" points="265.5,-324.42 255.22,-326.96 264.84,-331.39 265.5,-324.42"/>
</g>
<!-- aws_subnet.public&#45;&gt;aws_vpc.main -->
<g id="edge12" class="edge">
<title>aws_subnet.public&#45;&gt;aws_vpc.main</title>
<path fill="none" stroke="black" d="M346.21,-333.12C327.69,-329.11 308.06,-323.33 291,-315 283.4,-311.29 202.34,-242.79 157.66,-204.83"/>
<polygon fill="black" stroke="black" points="159.65,-201.93 149.76,-198.12 155.12,-207.27 159.65,-201.93"/>
</g>
<!-- aws_vpc_endpoint.dynamodb -->
<g id="node11" class="node">
<title>aws_vpc_endpoint.dynamodb</title>
<polygon fill="none" stroke="black" points="520,-36 311,-36 311,0 520,0 520,-36"/>
<text text-anchor="middle" x="415.5" y="-14.3" font-family="sans-serif" font-size="14.00">aws_vpc_endpoint.dynamodb</text>
</g>
<!-- aws_vpc_endpoint.dynamodb&#45;&gt;aws_vpc.main -->
<g id="edge13" class="edge">
<title>aws_vpc_endpoint.dynamodb&#45;&gt;aws_vpc.main</title>
<path fill="none" stroke="black" d="M312.73,-36.09C305.23,-38.68 297.9,-41.63 291,-45 234.49,-72.59 180.78,-123.79 151.47,-154.59"/>
<polygon fill="black" stroke="black" points="148.85,-152.27 144.55,-161.95 153.95,-157.06 148.85,-152.27"/>
</g>
<!-- aws_vpc_endpoint.s3 -->
<g id="node12" class="node">
<title>aws_vpc_endpoint.s3</title>
<polygon fill="none" stroke="black" points="493,-252 338,-252 338,-216 493,-216 493,-252"/>
<text text-anchor="middle" x="415.5" y="-230.3" font-family="sans-serif" font-size="14.00">aws_vpc_endpoint.s3</text>
</g>
<!-- aws_vpc_endpoint.s3&#45;&gt;aws_vpc.main -->
<g id="edge14" class="edge">
<title>aws_vpc_endpoint.s3&#45;&gt;aws_vpc.main</title>
<path fill="none" stroke="black" d="M337.86,-219.53C292.06,-210.88 234.59,-200.03 191.45,-191.89"/>
<polygon fill="black" stroke="black" points="191.84,-188.4 181.37,-189.98 190.54,-195.28 191.84,-188.4"/>
</g>
<!-- aws_vpc_endpoint_route_table_association.dynamodb_private -->
<g id="node13" class="node">
<title>aws_vpc_endpoint_route_table_association.dynamodb_private</title>
<polygon fill="none" stroke="black" points="998,-63 576,-63 576,-27 998,-27 998,-63"/>
<text text-anchor="middle" x="787" y="-41.3" font-family="sans-serif" font-size="14.00">aws_vpc_endpoint_route_table_association.dynamodb_private</text>
</g>
<!-- aws_vpc_endpoint_route_table_association.dynamodb_private&#45;&gt;aws_route_table.private -->
<g id="edge15" class="edge">
<title>aws_vpc_endpoint_route_table_association.dynamodb_private&#45;&gt;aws_route_table.private</title>
<path fill="none" stroke="black" d="M601.6,-63.07C592.84,-65.69 584.26,-68.65 576,-72 557.47,-79.52 558.18,-90.67 540,-99 531.09,-103.08 521.54,-106.55 511.84,-109.51"/>
<polygon fill="black" stroke="black" points="510.75,-106.19 502.1,-112.31 512.68,-112.91 510.75,-106.19"/>
</g>
<!-- aws_vpc_endpoint_route_table_association.dynamodb_private&#45;&gt;aws_vpc_endpoint.dynamodb -->
<g id="edge16" class="edge">
<title>aws_vpc_endpoint_route_table_association.dynamodb_private&#45;&gt;aws_vpc_endpoint.dynamodb</title>
<path fill="none" stroke="black" d="M575.88,-29.65C560.3,-28.51 544.97,-27.39 530.34,-26.32"/>
<polygon fill="black" stroke="black" points="530.56,-22.82 520.33,-25.59 530.05,-29.81 530.56,-22.82"/>
</g>
<!-- aws_vpc_endpoint_route_table_association.dynamodb_public -->
<g id="node14" class="node">
<title>aws_vpc_endpoint_route_table_association.dynamodb_public</title>
<polygon fill="none" stroke="black" points="1450,-40 1034,-40 1034,-4 1450,-4 1450,-40"/>
<text text-anchor="middle" x="1242" y="-18.3" font-family="sans-serif" font-size="14.00">aws_vpc_endpoint_route_table_association.dynamodb_public</text>
</g>
<!-- aws_vpc_endpoint_route_table_association.dynamodb_public&#45;&gt;aws_route_table.public -->
<g id="edge17" class="edge">
<title>aws_vpc_endpoint_route_table_association.dynamodb_public&#45;&gt;aws_route_table.public</title>
<path fill="none" stroke="black" d="M1161.11,-40.01C1113.84,-50.28 1052.7,-62.87 998,-72 959.81,-78.38 917.48,-84.08 880.9,-88.58"/>
<polygon fill="black" stroke="black" points="880.25,-85.13 870.74,-89.81 881.09,-92.08 880.25,-85.13"/>
</g>
<!-- aws_vpc_endpoint_route_table_association.dynamodb_public&#45;&gt;aws_vpc_endpoint.dynamodb -->
<g id="edge18" class="edge">
<title>aws_vpc_endpoint_route_table_association.dynamodb_public&#45;&gt;aws_vpc_endpoint.dynamodb</title>
<path fill="none" stroke="black" d="M1033.87,-18.36C1021.73,-18.22 1009.71,-18.1 998,-18 835.53,-16.66 647.53,-17.01 530.3,-17.45"/>
<polygon fill="black" stroke="black" points="530.22,-13.95 520.23,-17.49 530.24,-20.95 530.22,-13.95"/>
</g>
<!-- aws_vpc_endpoint_route_table_association.s3_private -->
<g id="node15" class="node">
<title>aws_vpc_endpoint_route_table_association.s3_private</title>
<polygon fill="none" stroke="black" points="970.5,-171 603.5,-171 603.5,-135 970.5,-135 970.5,-171"/>
<text text-anchor="middle" x="787" y="-149.3" font-family="sans-serif" font-size="14.00">aws_vpc_endpoint_route_table_association.s3_private</text>
</g>
<!-- aws_vpc_endpoint_route_table_association.s3_private&#45;&gt;aws_route_table.private -->
<g id="edge19" class="edge">
<title>aws_vpc_endpoint_route_table_association.s3_private&#45;&gt;aws_route_table.private</title>
<path fill="none" stroke="black" d="M603.41,-139.66C572,-137.36 540.5,-135.06 512.55,-133.02"/>
<polygon fill="black" stroke="black" points="512.65,-129.52 502.42,-132.28 512.14,-136.5 512.65,-129.52"/>
</g>
<!-- aws_vpc_endpoint_route_table_association.s3_private&#45;&gt;aws_vpc_endpoint.s3 -->
<g id="edge20" class="edge">
<title>aws_vpc_endpoint_route_table_association.s3_private&#45;&gt;aws_vpc_endpoint.s3</title>
<path fill="none" stroke="black" d="M603.23,-170.59C593.9,-173.32 584.77,-176.44 576,-180 557.47,-187.52 558.18,-198.67 540,-207 528.39,-212.31 515.68,-216.61 502.97,-220.07"/>
<polygon fill="black" stroke="black" points="502.09,-216.68 493.27,-222.56 503.82,-223.46 502.09,-216.68"/>
</g>
<!-- aws_vpc_endpoint_route_table_association.s3_public -->
<g id="node16" class="node">
<title>aws_vpc_endpoint_route_table_association.s3_public</title>
<polygon fill="none" stroke="black" points="1422.5,-194 1061.5,-194 1061.5,-158 1422.5,-158 1422.5,-194"/>
<text text-anchor="middle" x="1242" y="-172.3" font-family="sans-serif" font-size="14.00">aws_vpc_endpoint_route_table_association.s3_public</text>
</g>
<!-- aws_vpc_endpoint_route_table_association.s3_public&#45;&gt;aws_route_table.public -->
<g id="edge21" class="edge">
<title>aws_vpc_endpoint_route_table_association.s3_public&#45;&gt;aws_route_table.public</title>
<path fill="none" stroke="black" d="M1161.11,-157.99C1113.84,-147.72 1052.7,-135.13 998,-126 959.81,-119.62 917.48,-113.92 880.9,-109.42"/>
<polygon fill="black" stroke="black" points="881.09,-105.92 870.74,-108.19 880.25,-112.87 881.09,-105.92"/>
</g>
<!-- aws_vpc_endpoint_route_table_association.s3_public&#45;&gt;aws_vpc_endpoint.s3 -->
<g id="edge22" class="edge">
<title>aws_vpc_endpoint_route_table_association.s3_public&#45;&gt;aws_vpc_endpoint.s3</title>
<path fill="none" stroke="black" d="M1182.28,-194.11C1133.49,-208.16 1061.97,-226.47 998,-234 823.3,-254.56 617.03,-247.13 503.09,-240.29"/>
<polygon fill="black" stroke="black" points="503.23,-236.79 493.03,-239.67 502.8,-243.78 503.23,-236.79"/>
</g>
</g>
</svg>
