<?xml version="1.0" encoding="UTF-8" standalone="no"?>
<!DOCTYPE svg PUBLIC "-//W3C//DTD SVG 1.1//EN"
 "http://www.w3.org/Graphics/SVG/1.1/DTD/svg11.dtd">
<!-- Generated by graphviz version 2.43.0 (0)
 -->
<!-- Title: G Pages: 1 -->
<svg width="1062pt" height="206pt"
 viewBox="0.00 0.00 1062.00 206.00" xmlns="http://www.w3.org/2000/svg" xmlns:xlink="http://www.w3.org/1999/xlink">
<g id="graph0" class="graph" transform="scale(1 1) rotate(0) translate(4 202)">
<title>G</title>
<polygon fill="white" stroke="transparent" points="-4,4 -4,-202 1058,-202 1058,4 -4,4"/>
<!-- data.terraform_remote_state.ec2_n8n -->
<g id="node1" class="node">
<title>data.terraform_remote_state.ec2_n8n</title>
<polygon fill="none" stroke="black" points="587,-198 322,-198 322,-162 587,-162 587,-198"/>
<text text-anchor="middle" x="454.5" y="-176.3" font-family="sans-serif" font-size="14.00">data.terraform_remote_state.ec2_n8n</text>
</g>
<!-- data.terraform_remote_state.networking -->
<g id="node2" class="node">
<title>data.terraform_remote_state.networking</title>
<polygon fill="none" stroke="black" points="286,-90 0,-90 0,-54 286,-54 286,-90"/>
<text text-anchor="middle" x="143" y="-68.3" font-family="sans-serif" font-size="14.00">data.terraform_remote_state.networking</text>
</g>
<!-- aws_db_instance.main -->
<g id="node3" class="node">
<title>aws_db_instance.main</title>
<polygon fill="none" stroke="black" points="920.5,-90 756.5,-90 756.5,-54 920.5,-54 920.5,-90"/>
<text text-anchor="middle" x="838.5" y="-68.3" font-family="sans-serif" font-size="14.00">aws_db_instance.main</text>
</g>
<!-- aws_db_parameter_group.main -->
<g id="node4" class="node">
<title>aws_db_parameter_group.main</title>
<polygon fill="none" stroke="black" points="565,-90 344,-90 344,-54 565,-54 565,-90"/>
<text text-anchor="middle" x="454.5" y="-68.3" font-family="sans-serif" font-size="14.00">aws_db_parameter_group.main</text>
</g>
<!-- aws_db_instance.main&#45;&gt;aws_db_parameter_group.main -->
<g id="edge1" class="edge">
<title>aws_db_instance.main&#45;&gt;aws_db_parameter_group.main</title>
<path fill="none" stroke="black" d="M756.49,-72C703.8,-72 634.17,-72 575.15,-72"/>
<polygon fill="black" stroke="black" points="575.02,-68.5 565.02,-72 575.02,-75.5 575.02,-68.5"/>
</g>
<!-- aws_db_subnet_group.main -->
<g id="node5" class="node">
<title>aws_db_subnet_group.main</title>
<polygon fill="none" stroke="black" points="554,-36 355,-36 355,0 554,0 554,-36"/>
<text text-anchor="middle" x="454.5" y="-14.3" font-family="sans-serif" font-size="14.00">aws_db_subnet_group.main</text>
</g>
<!-- aws_db_instance.main&#45;&gt;aws_db_subnet_group.main -->
<g id="edge2" class="edge">
<title>aws_db_instance.main&#45;&gt;aws_db_subnet_group.main</title>
<path fill="none" stroke="black" d="M756.49,-60.55C700.47,-52.63 625.31,-42.01 564.12,-33.35"/>
<polygon fill="black" stroke="black" points="564.42,-29.86 554.03,-31.93 563.44,-36.79 564.42,-29.86"/>
</g>
<!-- aws_security_group.rds -->
<g id="node6" class="node">
<title>aws_security_group.rds</title>
<polygon fill="none" stroke="black" points="539.5,-144 369.5,-144 369.5,-108 539.5,-108 539.5,-144"/>
<text text-anchor="middle" x="454.5" y="-122.3" font-family="sans-serif" font-size="14.00">aws_security_group.rds</text>
</g>
<!-- aws_db_instance.main&#45;&gt;aws_security_group.rds -->
<g id="edge3" class="edge">
<title>aws_db_instance.main&#45;&gt;aws_security_group.rds</title>
<path fill="none" stroke="black" d="M756.49,-83.45C695.99,-92 613.17,-103.71 549.71,-112.68"/>
<polygon fill="black" stroke="black" points="549.11,-109.23 539.7,-114.1 550.09,-116.16 549.11,-109.23"/>
</g>
<!-- aws_db_subnet_group.main&#45;&gt;data.terraform_remote_state.networking -->
<g id="edge4" class="edge">
<title>aws_db_subnet_group.main&#45;&gt;data.terraform_remote_state.networking</title>
<path fill="none" stroke="black" d="M354.72,-35.23C323.75,-40.64 289.33,-46.64 257.43,-52.21"/>
<polygon fill="black" stroke="black" points="256.42,-48.83 247.17,-54 257.62,-55.73 256.42,-48.83"/>
</g>
<!-- aws_security_group.rds&#45;&gt;data.terraform_remote_state.networking -->
<g id="edge5" class="edge">
<title>aws_security_group.rds&#45;&gt;data.terraform_remote_state.networking</title>
<path fill="none" stroke="black" d="M369.34,-111.32C334.75,-105.28 294.17,-98.2 257.05,-91.72"/>
<polygon fill="black" stroke="black" points="257.64,-88.28 247.19,-90 256.44,-95.17 257.64,-88.28"/>
</g>
<!-- aws_vpc_security_group_ingress_rule.allow_postgres_from_n8n -->
<g id="node7" class="node">
<title>aws_vpc_security_group_ingress_rule.allow_postgres_from_n8n</title>
<polygon fill="none" stroke="black" points="1054,-171 623,-171 623,-135 1054,-135 1054,-171"/>
<text text-anchor="middle" x="838.5" y="-149.3" font-family="sans-serif" font-size="14.00">aws_vpc_security_group_ingress_rule.allow_postgres_from_n8n</text>
</g>
<!-- aws_vpc_security_group_ingress_rule.allow_postgres_from_n8n&#45;&gt;data.terraform_remote_state.ec2_n8n -->
<g id="edge6" class="edge">
<title>aws_vpc_security_group_ingress_rule.allow_postgres_from_n8n&#45;&gt;data.terraform_remote_state.ec2_n8n</title>
<path fill="none" stroke="black" d="M622.77,-168.18C614.2,-168.78 605.69,-169.38 597.32,-169.98"/>
<polygon fill="black" stroke="black" points="596.9,-166.5 587.17,-170.69 597.4,-173.48 596.9,-166.5"/>
</g>
<!-- aws_vpc_security_group_ingress_rule.allow_postgres_from_n8n&#45;&gt;aws_security_group.rds -->
<g id="edge7" class="edge">
<title>aws_vpc_security_group_ingress_rule.allow_postgres_from_n8n&#45;&gt;aws_security_group.rds</title>
<path fill="none" stroke="black" d="M622.77,-137.82C597.29,-136.02 572.38,-134.26 549.89,-132.67"/>
<polygon fill="black" stroke="black" points="549.96,-129.17 539.74,-131.95 549.47,-136.15 549.96,-129.17"/>
</g>
</g>
</svg>
