<?xml version="1.0" encoding="UTF-8" standalone="no"?>
<!DOCTYPE svg PUBLIC "-//W3C//DTD SVG 1.1//EN"
 "http://www.w3.org/Graphics/SVG/1.1/DTD/svg11.dtd">
<!-- Generated by graphviz version 2.43.0 (0)
 -->
<!-- Title: G Pages: 1 -->
<svg width="910pt" height="260pt"
 viewBox="0.00 0.00 910.00 260.00" xmlns="http://www.w3.org/2000/svg" xmlns:xlink="http://www.w3.org/1999/xlink">
<g id="graph0" class="graph" transform="scale(1 1) rotate(0) translate(4 256)">
<title>G</title>
<polygon fill="white" stroke="transparent" points="-4,4 -4,-256 906,-256 906,4 -4,4"/>
<!-- aws_s3_bucket.tf_state -->
<g id="node1" class="node">
<title>aws_s3_bucket.tf_state</title>
<polygon fill="none" stroke="black" points="167,-144 0,-144 0,-108 167,-108 167,-144"/>
<text text-anchor="middle" x="83.5" y="-122.3" font-family="sans-serif" font-size="14.00">aws_s3_bucket.tf_state</text>
</g>
<!-- aws_s3_bucket_acl.tf_state_acl -->
<g id="node2" class="node">
<title>aws_s3_bucket_acl.tf_state_acl</title>
<polygon fill="none" stroke="black" points="902,-198 687,-198 687,-162 902,-162 902,-198"/>
<text text-anchor="middle" x="794.5" y="-176.3" font-family="sans-serif" font-size="14.00">aws_s3_bucket_acl.tf_state_acl</text>
</g>
<!-- aws_s3_bucket_ownership_controls.tf_state_ownership_controls -->
<g id="node4" class="node">
<title>aws_s3_bucket_ownership_controls.tf_state_ownership_controls</title>
<polygon fill="none" stroke="black" points="646,-198 208,-198 208,-162 646,-162 646,-198"/>
<text text-anchor="middle" x="427" y="-176.3" font-family="sans-serif" font-size="14.00">aws_s3_bucket_ownership_controls.tf_state_ownership_controls</text>
</g>
<!-- aws_s3_bucket_acl.tf_state_acl&#45;&gt;aws_s3_bucket_ownership_controls.tf_state_ownership_controls -->
<g id="edge1" class="edge">
<title>aws_s3_bucket_acl.tf_state_acl&#45;&gt;aws_s3_bucket_ownership_controls.tf_state_ownership_controls</title>
<path fill="none" stroke="black" d="M686.8,-180C676.9,-180 666.64,-180 656.16,-180"/>
<polygon fill="black" stroke="black" points="656.06,-176.5 646.06,-180 656.06,-183.5 656.06,-176.5"/>
</g>
<!-- aws_s3_bucket_lifecycle_configuration.tf_state_lifecycle -->
<g id="node3" class="node">
<title>aws_s3_bucket_lifecycle_configuration.tf_state_lifecycle</title>
<polygon fill="none" stroke="black" points="617,-252 237,-252 237,-216 617,-216 617,-252"/>
<text text-anchor="middle" x="427" y="-230.3" font-family="sans-serif" font-size="14.00">aws_s3_bucket_lifecycle_configuration.tf_state_lifecycle</text>
</g>
<!-- aws_s3_bucket_lifecycle_configuration.tf_state_lifecycle&#45;&gt;aws_s3_bucket.tf_state -->
<g id="edge2" class="edge">
<title>aws_s3_bucket_lifecycle_configuration.tf_state_lifecycle&#45;&gt;aws_s3_bucket.tf_state</title>
<path fill="none" stroke="black" d="M236.78,-217.59C225.2,-214.59 213.86,-211.09 203,-207 168.94,-194.18 135.17,-169.62 112.44,-150.89"/>
<polygon fill="black" stroke="black" points="114.5,-148.04 104.59,-144.29 109.99,-153.4 114.5,-148.04"/>
</g>
<!-- aws_s3_bucket_ownership_controls.tf_state_ownership_controls&#45;&gt;aws_s3_bucket.tf_state -->
<g id="edge3" class="edge">
<title>aws_s3_bucket_ownership_controls.tf_state_ownership_controls&#45;&gt;aws_s3_bucket.tf_state</title>
<path fill="none" stroke="black" d="M261.01,-161.97C241.41,-159.26 221.73,-156.26 203,-153 191.63,-151.02 179.71,-148.66 168,-146.16"/>
<polygon fill="black" stroke="black" points="168.74,-142.74 158.22,-144.04 167.25,-149.58 168.74,-142.74"/>
</g>
<!-- aws_s3_bucket_public_access_block.tf_state_block -->
<g id="node5" class="node">
<title>aws_s3_bucket_public_access_block.tf_state_block</title>
<polygon fill="none" stroke="black" points="598,-144 256,-144 256,-108 598,-108 598,-144"/>
<text text-anchor="middle" x="427" y="-122.3" font-family="sans-serif" font-size="14.00">aws_s3_bucket_public_access_block.tf_state_block</text>
</g>
<!-- aws_s3_bucket_public_access_block.tf_state_block&#45;&gt;aws_s3_bucket.tf_state -->
<g id="edge4" class="edge">
<title>aws_s3_bucket_public_access_block.tf_state_block&#45;&gt;aws_s3_bucket.tf_state</title>
<path fill="none" stroke="black" d="M255.75,-126C228.71,-126 201.64,-126 177.28,-126"/>
<polygon fill="black" stroke="black" points="177.01,-122.5 167.01,-126 177.01,-129.5 177.01,-122.5"/>
</g>
<!-- aws_s3_bucket_server_side_encryption_configuration.tf_state_sse -->
<g id="node6" class="node">
<title>aws_s3_bucket_server_side_encryption_configuration.tf_state_sse</title>
<polygon fill="none" stroke="black" points="651,-90 203,-90 203,-54 651,-54 651,-90"/>
<text text-anchor="middle" x="427" y="-68.3" font-family="sans-serif" font-size="14.00">aws_s3_bucket_server_side_encryption_configuration.tf_state_sse</text>
</g>
<!-- aws_s3_bucket_server_side_encryption_configuration.tf_state_sse&#45;&gt;aws_s3_bucket.tf_state -->
<g id="edge5" class="edge">
<title>aws_s3_bucket_server_side_encryption_configuration.tf_state_sse&#45;&gt;aws_s3_bucket.tf_state</title>
<path fill="none" stroke="black" d="M261.01,-90.03C241.41,-92.74 221.73,-95.74 203,-99 191.63,-100.98 179.71,-103.34 168,-105.84"/>
<polygon fill="black" stroke="black" points="167.25,-102.42 158.22,-107.96 168.74,-109.26 167.25,-102.42"/>
</g>
<!-- aws_s3_bucket_versioning.tf_state_versioning -->
<g id="node7" class="node">
<title>aws_s3_bucket_versioning.tf_state_versioning</title>
<polygon fill="none" stroke="black" points="586,-36 268,-36 268,0 586,0 586,-36"/>
<text text-anchor="middle" x="427" y="-14.3" font-family="sans-serif" font-size="14.00">aws_s3_bucket_versioning.tf_state_versioning</text>
</g>
<!-- aws_s3_bucket_versioning.tf_state_versioning&#45;&gt;aws_s3_bucket.tf_state -->
<g id="edge6" class="edge">
<title>aws_s3_bucket_versioning.tf_state_versioning&#45;&gt;aws_s3_bucket.tf_state</title>
<path fill="none" stroke="black" d="M267.77,-27.6C245.61,-31.69 223.44,-37.31 203,-45 168.94,-57.82 135.17,-82.38 112.44,-101.11"/>
<polygon fill="black" stroke="black" points="109.99,-98.6 104.59,-107.71 114.5,-103.96 109.99,-98.6"/>
</g>
</g>
</svg>
